<svg width="180" height="180" viewBox="0 0 180 180" fill="none" xmlns="http://www.w3.org/2000/svg">
  <circle cx="90" cy="90" r="90" fill="#fff5ec"/>
  <circle cx="90" cy="90" r="82" fill="#aa4965"/>
  <circle cx="90" cy="90" r="74" fill="#fffaf5"/>
  <g transform="translate(90, 90)">
    <path d="M0 0 C-18 -32 -26 -56 0 -72 C26 -56 18 -32 0 0" fill="#f2c6cf" stroke="#aa4965" stroke-width="2.5"/>
    <path d="M0 0 C-18 -32 -26 -56 0 -72 C26 -56 18 -32 0 0" transform="rotate(72)" fill="#f2c6cf" stroke="#aa4965" stroke-width="2.5"/>
    <path d="M0 0 C-18 -32 -26 -56 0 -72 C26 -56 18 -32 0 0" transform="rotate(144)" fill="#f2c6cf" stroke="#aa4965" stroke-width="2.5"/>
    <path d="M0 0 C-18 -32 -26 -56 0 -72 C26 -56 18 -32 0 0" transform="rotate(216)" fill="#f2c6cf" stroke="#aa4965" stroke-width="2.5"/>
    <path d="M0 0 C-18 -32 -26 -56 0 -72 C26 -56 18 -32 0 0" transform="rotate(288)" fill="#f2c6cf" stroke="#aa4965" stroke-width="2.5"/>
    <circle cx="0" cy="0" r="14" fill="#c69846"/>
    <circle cx="0" cy="0" r="8" fill="#fffaf5"/>
  </g>
</svg>